<svg xmlns="http://www.w3.org/2000/svg" width="190" height="34" viewBox="0 0 190 34" fill="none"><g clip-path="url(#clip0_2280_3693)"><path d="M28.6369 8.04254C28.6564 8.14964 28.6927 8.2569 28.6927 8.36401C28.6955 12.8177 28.6932 17.2714 28.7006 21.7249C28.7011 21.9657 28.6096 22.0807 28.4157 22.1888C26.6244 23.1877 24.8379 24.1956 23.0502 25.2014C22.9529 25.2562 22.8577 25.3152 22.7616 25.3721C22.7362 25.2302 22.6889 25.0885 22.6886 24.9466C22.6838 22.9132 22.6856 20.8798 22.6844 18.8465C22.6844 18.7155 22.6731 18.5843 22.6658 18.4279C22.5759 18.4623 22.5287 18.4741 22.4874 18.4973C20.5729 19.5744 18.6588 20.6525 16.7447 21.7305C16.7209 21.7235 16.6969 21.7164 16.6731 21.7093C16.6737 19.5832 16.6726 17.4573 16.6782 15.3314C16.6787 15.132 16.7222 14.9327 16.7457 14.7335C17.3969 14.3706 18.0492 14.0094 18.6994 13.6445C21.3867 12.1359 24.0738 10.6269 26.76 9.11594C27.3883 8.76252 28.0115 8.40055 28.6369 8.04254Z" fill="#1F009D"/><path d="M16.6732 21.7093C16.697 21.7164 16.721 21.7234 16.7448 21.7305C16.7193 21.8781 16.6764 22.0251 16.672 22.1732C16.6611 22.5261 16.6682 22.8797 16.6682 23.2331C16.6682 24.8988 16.6695 26.5645 16.6662 28.2302C16.6659 28.3995 16.7151 28.5933 16.5215 28.7048C14.6476 27.6496 12.7744 26.5932 10.8996 25.5394C9.28485 24.6319 7.66746 23.7296 6.05349 22.8205C5.59927 22.5647 5.1531 22.2936 4.70337 22.0295C4.70554 21.8272 4.7094 21.6248 4.70956 21.4225C4.70971 17.1855 4.70971 12.9487 4.70971 8.71177C4.70971 8.59787 4.7029 8.48349 4.71312 8.37053C4.72039 8.29032 4.75103 8.21249 4.78137 8.09399C4.99741 8.21533 5.17894 8.31785 5.36078 8.41942C6.25065 8.91617 7.14159 9.41071 8.03006 9.90968C8.9077 10.4025 9.78317 10.8997 10.6596 11.395C10.6572 13.6326 10.654 15.8702 10.6563 18.108C10.6565 18.2142 10.7075 18.3203 10.7348 18.4265C12.6119 19.4833 14.4888 20.5407 16.3672 21.5949C16.4613 21.6476 16.5709 21.6718 16.6732 21.7093Z" fill="#6DCAFF"/><path d="M10.7348 18.4263C10.7074 18.3202 10.6565 18.214 10.6563 18.1078C10.654 15.8702 10.6574 13.6326 10.6595 11.3949C11.9547 10.6796 13.2514 9.9671 14.5448 9.24839C15.2068 8.88041 15.8632 8.50152 16.522 8.12768C16.656 8.06472 16.794 8.00919 16.9236 7.93784C18.7197 6.94908 20.5168 5.96222 22.3073 4.96317C22.5469 4.82949 22.732 4.80956 22.9852 4.94862C24.7496 5.91729 26.5243 6.86618 28.2948 7.82362C28.4132 7.88769 28.5227 7.96917 28.6363 8.04257C28.011 8.40058 27.3877 8.76255 26.7597 9.11581C24.0737 10.6268 21.3865 12.1357 18.6991 13.6443C18.049 14.0093 17.3967 14.3705 16.7454 14.7334C16.6057 14.6864 16.4554 14.6595 16.3282 14.5893C15.4583 14.108 14.5931 13.6176 13.7262 13.1303C12.8703 12.6491 12.0149 12.1667 11.1574 11.6883C11.044 11.6251 10.9195 11.5825 10.7943 11.5276C10.701 11.9 10.6701 16.3305 10.7348 18.4263Z" fill="#5429FF"/><path d="M16.5217 28.7049C16.7152 28.5933 16.6661 28.3995 16.6664 28.2303C16.6697 26.5646 16.6684 24.8988 16.6684 23.2331C16.6684 22.8799 16.6613 22.5263 16.6722 22.1732C16.6768 22.025 16.7197 21.878 16.745 21.7305C18.6591 20.6526 20.5732 19.5744 22.4877 18.4974C22.5288 18.4743 22.5762 18.4624 22.6661 18.4279C22.6734 18.5844 22.6845 18.7154 22.6847 18.8465C22.6858 20.8799 22.6839 22.9133 22.6889 24.9466C22.6892 25.0885 22.7364 25.2303 22.7619 25.3722C21.6175 26.0132 20.473 26.6538 19.3289 27.2953C18.519 27.7493 17.7103 28.2054 16.9 28.6587C16.7822 28.7245 16.661 28.8039 16.5217 28.7049Z" fill="#B9E5FF"/><path d="M16.8669 8.1277C16.2079 8.50169 15.5517 8.88042 14.8897 9.2484C13.5964 9.96711 12.2998 10.6798 11.0045 11.3949C10.1281 10.8996 9.25274 10.4023 8.37495 9.90953C7.48632 9.41056 6.59538 8.91602 5.70567 8.41927C5.52383 8.3177 5.34229 8.21534 5.12625 8.09384C5.09592 8.21234 5.06528 8.29017 5.058 8.37038C5.04779 8.4835 5.0546 8.59803 5.0546 8.71178C5.0546 12.9487 5.0546 17.1855 5.05429 21.4225C5.05429 21.6248 5.05027 21.8272 5.0481 22.0295C5.02535 21.8818 4.98279 21.7338 4.98264 21.5861C4.97923 17.2094 4.98264 12.8328 4.97412 8.45628C4.9735 8.13498 5.0806 7.95874 5.36071 7.80987C7.10577 6.88281 8.84418 5.94214 10.5772 4.99182C10.8704 4.83093 11.0922 4.83346 11.3927 5.00638C13.0202 5.94262 14.6651 6.84721 16.3022 7.76637C16.4965 7.87553 16.679 8.00683 16.8669 8.1277Z" fill="#99DAFF"/><path d="M10.7347 18.4263C10.67 16.3304 10.7009 11.8998 10.7941 11.5274C10.9195 11.5823 11.0439 11.6249 11.1572 11.6881C12.0147 12.1665 12.87 12.6489 13.726 13.1301C14.5928 13.6174 15.4581 14.1078 16.3281 14.5891C16.4553 14.6595 16.6058 14.6862 16.7454 14.7332C16.7218 14.9325 16.6785 15.1317 16.6779 15.3311C16.6723 17.457 16.6734 19.583 16.6728 21.709C16.5705 21.6715 16.4611 21.6473 16.367 21.5944C14.4887 20.5406 12.6119 19.4831 10.7347 18.4263Z" fill="#2900CE"/></g><path d="M46.0912 20.8675L46.5825 24.3419C45.3687 24.7086 44.2223 24.892 43.1434 24.892C41.5442 24.892 40.3882 24.5446 39.6753 23.8497C38.9817 23.1548 38.6348 22.0449 38.6348 20.52V12.7026H36.0049V9.45988H38.6348V5.05897H42.97V9.45988H46.3513V12.7026H42.97V19.7383C42.97 20.2402 43.0856 20.5973 43.3168 20.8096C43.548 21.0026 43.9044 21.0991 44.3861 21.0991C44.7522 21.0991 45.3205 21.0219 46.0912 20.8675Z" fill="#030407"/><path d="M55.5833 9.1993C56.1806 9.1993 56.9994 9.37302 58.0399 9.72046L57.2306 13.5423C56.3251 13.33 55.67 13.2238 55.2654 13.2238C54.302 13.2238 53.541 13.6002 52.9822 14.353C52.4235 15.0865 52.1441 16.0998 52.1441 17.3931V24.5156H47.809V9.45988H51.8262V11.6024C52.6354 10.0003 53.8878 9.1993 55.5833 9.1993Z" fill="#030407"/><path d="M68.0433 9.45988H72.3784V24.5156H68.419V22.9232C67.5135 24.3129 66.0588 25.0078 64.055 25.0078C62.2825 25.0078 60.953 24.5832 60.0667 23.7339C59.1997 22.8846 58.7662 21.6685 58.7662 20.0857V9.45988H63.1013V18.9276C63.1013 20.4525 63.8431 21.2149 65.3267 21.2149C67.1378 21.2149 68.0433 20.2595 68.0433 18.3485V9.45988Z" fill="#030407"/><path d="M81.9516 21.3307C82.7415 21.3307 83.4448 21.1956 84.0613 20.9254C84.6779 20.6359 85.41 20.134 86.2578 19.4198L88.6276 22.1414C86.6431 24.0524 84.3792 25.0078 81.836 25.0078C79.3698 25.0078 77.4045 24.284 75.9402 22.8363C74.4952 21.3886 73.7727 19.4584 73.7727 17.0456C73.7727 14.6715 74.4663 12.7316 75.8535 11.226C77.2408 9.70115 79.1097 8.93871 81.4603 8.93871C83.7531 8.93871 85.516 9.60464 86.7491 10.9365C88.0015 12.2683 88.6276 14.1407 88.6276 16.5534C88.6276 17.0939 88.6084 17.6537 88.5698 18.2327H77.9633C78.4257 20.2981 79.7551 21.3307 81.9516 21.3307ZM81.4025 12.3263C79.6492 12.3263 78.5317 13.2817 78.05 15.1926H84.4948C84.2829 13.2817 83.2521 12.3263 81.4025 12.3263Z" fill="#030407"/><path d="M97.2518 6.94094C96.693 6.94094 96.2981 7.0664 96.0669 7.31733C95.8357 7.54896 95.7201 7.96395 95.7201 8.56232V9.45988H98.8702V12.7026H95.7201V24.5156H91.3849V12.7026H88.8706V9.45988H91.3849V8.3886C91.3849 5.06862 93.0612 3.40863 96.4137 3.40863C97.4541 3.40863 98.5523 3.58235 99.7083 3.92979L98.9569 7.14361C98.3982 7.00849 97.8298 6.94094 97.2518 6.94094Z" fill="#030407"/><path d="M106.657 8.93871C108.969 8.93871 110.867 9.6915 112.351 11.1971C113.834 12.6833 114.576 14.6039 114.576 16.9588C114.576 19.333 113.834 21.2728 112.351 22.7784C110.867 24.2647 108.969 25.0078 106.657 25.0078C104.326 25.0078 102.419 24.2647 100.935 22.7784C99.4515 21.2728 98.7097 19.333 98.7097 16.9588C98.7097 14.6039 99.4515 12.6833 100.935 11.1971C102.419 9.6915 104.326 8.93871 106.657 8.93871ZM106.657 12.6158C105.598 12.6158 104.74 13.0115 104.085 13.8029C103.43 14.5943 103.103 15.6462 103.103 16.9588C103.103 18.2906 103.43 19.3523 104.085 20.1437C104.74 20.935 105.598 21.3307 106.657 21.3307C107.717 21.3307 108.565 20.935 109.201 20.1437C109.856 19.3523 110.183 18.2906 110.183 16.9588C110.183 15.6462 109.856 14.5943 109.201 13.8029C108.546 13.0115 107.698 12.6158 106.657 12.6158Z" fill="#030407"/><path d="M125.171 9.45988H129.506V24.5156H125.546V22.9232C124.641 24.3129 123.186 25.0078 121.182 25.0078C119.41 25.0078 118.08 24.5832 117.194 23.7339C116.327 22.8846 115.894 21.6685 115.894 20.0857V9.45988H120.229V18.9276C120.229 20.4525 120.971 21.2149 122.454 21.2149C124.265 21.2149 125.171 20.2595 125.171 18.3485V9.45988Z" fill="#030407"/><path d="M140.119 8.93871C141.796 8.93871 143.106 9.41162 144.05 10.3574C145.013 11.3032 145.495 12.5868 145.495 14.2082V24.5156H141.16V15.4243C141.16 14.5557 140.938 13.8897 140.495 13.4265C140.071 12.9439 139.455 12.7026 138.646 12.7026C137.836 12.7026 137.191 12.9536 136.709 13.4554C136.227 13.9573 135.987 14.6425 135.987 15.5111V24.5156H131.652V9.45988H135.669V11.0813C136.69 9.6529 138.173 8.93871 140.119 8.93871Z" fill="#030407"/><path d="M157.924 3.95874H162.259V24.5156H158.242V22.6915C157.182 24.2164 155.612 24.9789 153.531 24.9789C151.585 24.9789 149.986 24.255 148.733 22.8074C147.5 21.3404 146.884 19.4102 146.884 17.0167C146.884 14.6039 147.5 12.6737 148.733 11.226C149.986 9.75906 151.595 9.02558 153.56 9.02558C155.429 9.02558 156.883 9.62394 157.924 10.8207V3.95874ZM154.658 21.3018C155.66 21.3018 156.479 20.9061 157.115 20.1147C157.75 19.3233 158.068 18.2906 158.068 17.0167C158.068 15.7427 157.75 14.7197 157.115 13.9476C156.479 13.1563 155.67 12.7606 154.687 12.7606C153.666 12.7606 152.837 13.1466 152.202 13.9187C151.566 14.6908 151.248 15.7234 151.248 17.0167C151.248 18.3099 151.556 19.3523 152.173 20.1437C152.789 20.9157 153.618 21.3018 154.658 21.3018Z" fill="#030407"/><path d="M172.181 9.1993C172.778 9.1993 173.597 9.37302 174.637 9.72046L173.828 13.5423C172.922 13.33 172.267 13.2238 171.863 13.2238C170.899 13.2238 170.138 13.6002 169.58 14.353C169.021 15.0865 168.742 16.0998 168.742 17.3931V24.5156H164.406V9.45988H168.424V11.6024C169.233 10.0003 170.485 9.1993 172.181 9.1993Z" fill="#030407"/><path d="M185.549 9.45988H190L184.278 26.0212C183.777 27.5075 183.093 28.5691 182.226 29.206C181.359 29.8623 180.203 30.1905 178.758 30.1905C177.544 30.1905 176.503 30.0457 175.636 29.7562L176.359 26.5423C176.937 26.6582 177.544 26.7161 178.18 26.7161C179.239 26.7161 179.981 26.2721 180.405 25.3842L174.74 9.45988H179.307L180.463 12.9632C181.445 15.8779 182.12 18.0108 182.486 19.3619C182.91 17.837 183.555 15.7041 184.422 12.9632L185.549 9.45988Z" fill="#030407"/><defs><clipPath id="clip0_2280_3693"><rect width="24.071" height="23.8983" fill="white" transform="translate(4.62915 4.85321)"/></clipPath></defs></svg>
